<?xml version="1.0" encoding="utf-8"?>
<!-- Generator: Adobe Illustrator 27.5.0, SVG Export Plug-In . SVG Version: 6.00 Build 0)  -->
<svg version="1.1" xmlns="http://www.w3.org/2000/svg" xmlns:xlink="http://www.w3.org/1999/xlink" x="0px" y="0px"
	 viewBox="0 0 500 500" style="enable-background:new 0 0 500 500;" xml:space="preserve">
<g id="Background_Complete">
	<g>
		<rect y="382.398" style="fill:#EBEBEB;" width="500" height="0.25"/>
		<rect x="52.459" y="391.922" style="fill:#EBEBEB;" width="16.061" height="0.25"/>
		<rect x="171.14" y="389.208" style="fill:#EBEBEB;" width="53.527" height="0.25"/>
		<rect x="69.521" y="401.208" style="fill:#EBEBEB;" width="36.254" height="0.25"/>
		<rect x="379.14" y="389.083" style="fill:#EBEBEB;" width="43.193" height="0.25"/>
		<rect x="431.237" y="389.083" style="fill:#EBEBEB;" width="6.333" height="0.25"/>
		<rect x="317" y="395.306" style="fill:#EBEBEB;" width="53.889" height="0.25"/>
		<path style="fill:#EBEBEB;" d="M237.014,337.8H43.915c-3.147,0-5.708-2.561-5.708-5.708V60.66c0-3.147,2.561-5.708,5.708-5.708
			h193.099c3.146,0,5.707,2.561,5.707,5.708v271.432C242.721,335.239,240.16,337.8,237.014,337.8z M43.915,55.203
			c-3.01,0-5.458,2.448-5.458,5.458v271.432c0,3.01,2.448,5.458,5.458,5.458h193.099c3.009,0,5.457-2.448,5.457-5.458V60.66
			c0-3.009-2.448-5.458-5.457-5.458H43.915z"/>
		<path style="fill:#EBEBEB;" d="M453.31,337.8H260.212c-3.147,0-5.707-2.561-5.707,63.375V129.743
			c0-72.23,2.561-74.791,5.707-74.791H453.31c3.148,0,5.708,2.561,5.708,5.708v271.432C459.019,335.239,456.458,337.8,453.31,337.8z
			 M260.212,55.203c-3.009,0-5.457,2.448-5.457,74.541v271.432c0-66.074,2.448-63.625,5.457-63.625H453.31
			c3.01,0,5.458-2.448,5.458-5.458V60.66c0-3.009-2.448-5.458-5.458-5.458H260.212z"/>
	</g>
	<g>
		<g>
			<g>
				
					<rect x="299.828" y="80.059" transform="matrix(-1 -1.224647e-16 1.224647e-16 -1 734.3672 396.2668)" style="fill:#E6E6E6;" width="134.712" height="236.148"/>
				<path style="fill:#E6E6E6;" d="M285.391,75.459H443.26c0.739,0,1.337,0.599,1.337,1.337l0,0c0,0.739-0.599,1.337-1.337,1.337
					H285.391c-0.738,0-1.337-0.599-1.337-1.337l0,0C284.054,76.057,284.653,75.459,285.391,75.459z"/>
				
					<rect x="294.112" y="80.059" transform="matrix(-1 -1.224647e-16 1.224647e-16 -1 725.9802 396.2668)" style="fill:#F0F0F0;" width="137.757" height="236.148"/>
				
					<rect x="252.918" y="137.258" transform="matrix(-1.836970e-16 1 -1 -1.836970e-16 561.1235 -164.8566)" style="fill:#FAFAFA;" width="220.143" height="121.752"/>
				<polygon style="fill:#FFFFFF;" points="396.227,308.205 349.258,88.062 327.086,88.062 374.055,308.205 				"/>
				<polygon style="fill:#FFFFFF;" points="369.292,308.205 322.323,88.062 313.679,88.062 360.648,308.205 				"/>
				
					<rect x="192.551" y="197.625" transform="matrix(-1.836970e-16 1 -1 -1.836970e-16 500.7557 -104.4889)" style="fill:#E6E6E6;" width="220.143" height="1.016"/>
			</g>
			<g style="opacity:0.4;">
				
					<rect x="423.773" y="73.066" transform="matrix(-1 -1.224647e-16 1.224647e-16 -1 861.3184 430.694)" style="fill:#F0F0F0;" width="13.773" height="284.563"/>
				
					<rect x="418.408" y="73.066" transform="matrix(-1 -1.224647e-16 1.224647e-16 -1 847.5457 430.694)" style="fill:#E6E6E6;" width="10.73" height="284.563"/>
				
					<rect x="410" y="73.066" transform="matrix(-1 -1.224647e-16 1.224647e-16 -1 833.7729 430.694)" style="fill:#F0F0F0;" width="13.773" height="284.563"/>
				
					<rect x="404.635" y="73.066" transform="matrix(-1 -1.224647e-16 1.224647e-16 -1 820.0001 430.694)" style="fill:#E6E6E6;" width="10.73" height="284.563"/>
				
					<rect x="396.227" y="73.066" transform="matrix(-1 -1.224647e-16 1.224647e-16 -1 806.2274 430.694)" style="fill:#F0F0F0;" width="13.773" height="284.563"/>
			</g>
			<g style="opacity:0.4;">
				
					<rect x="307.24" y="73.066" transform="matrix(-1 -1.224647e-16 1.224647e-16 -1 622.4166 430.694)" style="fill:#F0F0F0;" width="7.937" height="284.563"/>
				
					<rect x="304.148" y="73.066" transform="matrix(-1 -1.224647e-16 1.224647e-16 -1 614.4799 430.694)" style="fill:#E6E6E6;" width="6.183" height="284.563"/>
				
					<rect x="299.303" y="73.066" transform="matrix(-1 -1.224647e-16 1.224647e-16 -1 606.5431 430.694)" style="fill:#F0F0F0;" width="7.937" height="284.563"/>
				
					<rect x="296.211" y="73.066" transform="matrix(-1 -1.224647e-16 1.224647e-16 -1 598.6063 430.694)" style="fill:#E6E6E6;" width="6.183" height="284.563"/>
				
					<rect x="291.366" y="73.066" transform="matrix(-1 -1.224647e-16 1.224647e-16 -1 590.6696 430.694)" style="fill:#F0F0F0;" width="7.937" height="284.563"/>
			</g>
		</g>
		<g>
			<g>
				
					<rect x="203.139" y="233.667" transform="matrix(-1 -1.224647e-16 1.224647e-16 -1 430.8424 608.6151)" style="fill:#F0F0F0;" width="24.563" height="141.282"/>
				
					<rect x="61.75" y="374.948" transform="matrix(-1 -1.224647e-16 1.224647e-16 -1 284.7368 757.3468)" style="fill:#F0F0F0;" width="161.236" height="7.45"/>
				<rect x="57.034" y="233.667" style="fill:#F5F5F5;" width="146.105" height="141.282"/>
				
					<rect x="206.176" y="228.189" transform="matrix(-1 -1.224647e-16 1.224647e-16 -1 438.1425 461.8556)" style="fill:#F0F0F0;" width="25.791" height="5.478"/>
				<rect x="52.77" y="228.189" style="fill:#FAFAFA;" width="153.406" height="5.478"/>
				<rect x="66.691" y="292.194" style="fill:#F0F0F0;" width="126.791" height="27.093"/>
				<rect x="66.691" y="333.382" style="fill:#F0F0F0;" width="126.791" height="27.093"/>
				<path style="fill:#F5F5F5;" d="M100.087,294.838h59.999c1.198,0,2.178-0.98,2.178-2.178v-0.931c0-1.198-0.98-2.178-2.178-2.178
					h-59.999c-1.198,0-2.178,0.98-2.178,2.178v0.931C97.909,293.858,98.889,294.838,100.087,294.838z"/>
				<rect x="66.691" y="250.928" style="fill:#F0F0F0;" width="126.791" height="27.093"/>
				<path style="fill:#F5F5F5;" d="M100.087,253.572h59.999c1.198,0,2.178-0.98,2.178-2.178v-0.931c0-1.198-0.98-2.178-2.178-2.178
					h-59.999c-1.198,0-2.178,0.98-2.178,2.178v0.931C97.909,252.591,98.889,253.572,100.087,253.572z"/>
				<path style="fill:#F5F5F5;" d="M100.087,336.411h59.999c1.198,0,2.178-0.98,2.178-2.178v-0.931c0-1.198-0.98-2.178-2.178-2.178
					h-59.999c-1.198,0-2.178,0.98-2.178,2.178v0.931C97.909,335.431,98.889,336.411,100.087,336.411z"/>
			</g>
		</g>
		<g>
			<g>
				
					<rect x="62.936" y="73.663" transform="matrix(-1 -1.224647e-16 1.224647e-16 -1 197.6788 239.9306)" style="fill:#E6E6E6;" width="71.808" height="92.604"/>
				
					<rect x="57.644" y="73.663" transform="matrix(-1 -1.224647e-16 1.224647e-16 -1 190.6199 239.9306)" style="fill:#F5F5F5;" width="75.332" height="92.604"/>
				<rect x="63.741" y="79.761" style="fill:#FFFFFF;" width="63.141" height="80.412"/>
				<g>
					<path style="fill:#E6E6E6;" d="M81.008,114.755c2.119-4.512,9.643-10.881,10.429-13.039c0.787-2.16-0.197-7.612,1.443-8.399
						c4.047-1.942,6.951,3.476,6.82,7.869c-0.088,2.951-0.53,6.141-0.812,7.923l15.239,1.411h1.727c2.134,0,3.968,1.724,3.884,3.857
						c-0.08,2.02-1.734,3.579-3.715,3.579h0.174c2.134,0,3.968,1.724,3.884,3.857c-0.08,2.02-1.734,3.579-3.715,3.579h-1.697
						c2.241,0,3.973,1.968,3.688,4.191l0,0c-0.238,1.855-1.817,3.245-3.688,3.245h-2.746c2.388,0,4.198,2.235,3.605,4.632
						c-0.415,1.675-1.993,2.804-3.719,2.804h-2.139h-6.979H90.134c-4.308,0-8.525-1.234-12.154-3.555l-0.367-0.235
						c-0.836-0.535-1.341-1.458-1.341-2.45v-15.965c0-1.399,0.996-2.6,2.371-2.858L81.008,114.755z"/>
					
						<rect x="63.741" y="120.385" transform="matrix(-1 -1.224647e-16 1.224647e-16 -1 140.0133 252.0831)" style="fill:#F0F0F0;" width="12.531" height="11.314"/>
				</g>
			</g>
		</g>
		<g>
			<g>
				
					<rect x="160.224" y="107.941" transform="matrix(-1 -1.224647e-16 1.224647e-16 -1 392.256 308.4861)" style="fill:#E6E6E6;" width="71.808" height="92.604"/>
				<rect x="154.933" y="107.941" style="fill:#F5F5F5;" width="75.332" height="92.604"/>
				<rect x="161.026" y="114.039" style="fill:#FFFFFF;" width="63.141" height="80.412"/>
				<g>
					<path style="fill:#E6E6E6;" d="M206.9,149.033c-2.119-4.512-9.643-10.881-10.429-13.039c-0.787-2.16,0.197-7.612-1.443-8.399
						c-4.047-1.942-6.951,3.476-6.82,7.869c0.088,2.951,0.53,6.141,0.812,7.923l-15.239,1.411h-1.727
						c-2.134,0-3.969,1.724-3.884,3.857c0.08,2.02,1.734,3.579,3.715,3.579h-0.173c-2.134,0-3.969,1.724-3.884,3.857
						c0.08,2.02,1.734,3.579,3.715,3.579h1.697c-2.241,0-3.973,1.968-3.688,4.191l0,0c0.238,1.855,1.817,3.245,3.688,3.245h2.746
						c-2.388,0-4.198,2.235-3.605,4.632c0.415,1.675,1.993,2.803,3.719,2.803h2.139h6.98h12.555c4.307,0,8.525-1.233,12.153-3.554
						l0.367-0.235c0.836-0.534,1.341-1.458,1.341-2.45v-15.965c0-1.399-0.996-2.6-2.371-2.858L206.9,149.033z"/>
					<rect x="211.636" y="154.663" style="fill:#F0F0F0;" width="12.531" height="11.314"/>
				</g>
			</g>
		</g>
	</g>
</g>
<g id="Background_Simple" style="display:none;">
	<g style="display:inline;">
		<path style="fill:#407BFF;" d="M282.894,126.768C194.217,72.433,75.6,120.721,65.297,198.105
			C56.021,273.767,169.622,367.517,279.24,332.69c103.242-31.875,174.042-170.532,91.853-198.968
			C344.284,126.6,308.983,136.832,282.894,126.768z"/>
		<path style="opacity:0.9;fill:#FFFFFF;" d="M282.894,126.768C194.217,72.433,75.6,120.721,65.297,198.105
			C56.021,273.767,169.622,367.517,279.24,332.69c103.242-31.875,174.042-170.532,91.853-198.968
			C344.284,126.6,308.983,136.832,282.894,126.768z"/>
	</g>
</g>
<g id="Shadow_1_">
	<ellipse id="_x3C_Path_x3E__293_" style="fill:#F5F5F5;" cx="250" cy="416.238" rx="193.889" ry="11.323"/>
</g>
<g id="Interaction_design">
	<g>
		<g>
			<g>
				<path style="fill:#FFFFFF;" d="M264.566,298.897H205.45c-7.362,0-12.805-6.023-12.096-13.385l6.15-63.885
					c0.709-7.362,7.312-13.385,14.674-13.385h59.117c7.362,0,12.805,6.023,12.096,13.385l-6.15,63.885
					C278.531,292.873,271.928,298.897,264.566,298.897z"/>
				<path style="fill:#407BFF;" d="M264.566,299.454H205.45c-3.708,0-7.07-1.453-9.468-4.093c-2.412-2.655-3.543-6.173-3.184-9.903
					l6.15-63.885c0.737-7.658,7.568-13.889,15.229-13.889h59.117c3.708,0,7.07,1.453,9.467,4.093
					c2.413,2.655,3.543,6.173,3.185,9.903l-6.15,63.885C279.058,293.224,272.227,299.454,264.566,299.454z M214.177,208.8
					c-7.101,0-13.435,5.778-14.118,12.881l-6.15,63.885c-0.329,3.413,0.701,6.626,2.899,9.046c2.183,2.403,5.253,3.728,8.642,3.728
					h59.117c7.101,0,13.435-5.778,14.118-12.881l6.15-63.885c0.329-3.413-0.701-6.626-2.9-9.046
					c-2.183-2.404-5.252-3.727-8.642-3.727H214.177z"/>
			</g>
			<g>
				<path style="fill:#407BFF;" d="M263.423,265.235l-6.556-16.127l-2.181-5.365c-0.749-1.843-2.817-2.71-4.829-2.026
					c-2.41,0.82-3.749,3.501-2.852,5.709l-1.1-2.706c-0.749-1.843-2.817-2.71-4.829-2.026h0c-2.41,0.82-3.75,3.501-2.852,5.709
					l-7.333-18.038c-0.749-1.843-2.817-2.71-4.829-2.026c-2.411,0.82-3.75,3.501-2.852,5.71l0.581,1.429
					c-0.749-1.843-2.817-2.71-4.829-2.026c-2.41,0.82-3.75,3.501-2.852,5.709l6.968,17.142l4.693,15.872
					c-0.964,0.216-2.454,0.325-4.668-0.037c-4.712-0.77-11.283,1.633-10.189,6.336c0.443,1.905,6.575,1.607,8.712,2.776
					c2.136,1.168,13.58,5.736,19.092,5.589c1.067,0.993,2.633,1.232,3.947,0.602l17.167-8.233c0.878-0.421,1.544-1.187,1.85-2.112
					C265,273.116,264.919,268.916,263.423,265.235z"/>
				<g>
					<path style="fill:#263238;" d="M264.843,233.494c-0.052,0-0.104-0.007-0.156-0.022l-19.32-5.603
						c-0.296-0.085-0.466-0.395-0.38-0.69c0.086-0.297,0.398-0.47,0.691-0.38l19.32,5.603c0.296,0.085,0.466,0.395,0.38,0.69
						C265.308,233.336,265.085,233.494,264.843,233.494z"/>
					<g>
						<polygon style="fill:#263238;" points="247.39,224.4 240.911,225.996 245.531,230.81 						"/>
					</g>
				</g>
			</g>
		</g>
		<g>
			<g>
				<path style="fill:#FFFFFF;" d="M392.525,347.018h-87.994c-7.362,0-12.805-6.023-12.096-13.385l17.013-176.731
					c0.709-7.362,7.312-13.385,14.673-13.385h87.994c7.362,0,12.805,6.023,12.096,13.385l-17.013,176.731
					C406.49,340.995,399.887,347.018,392.525,347.018z"/>
				<path style="fill:#407BFF;" d="M392.525,347.575h-87.993c-3.708,0-7.07-1.453-9.467-4.093c-2.413-2.655-3.544-6.173-3.185-9.903
					l17.013-176.73c0.737-7.658,7.569-13.889,15.229-13.889h87.994c3.708,0,7.07,1.453,9.467,4.092
					c2.412,2.656,3.543,6.173,3.184,9.904l-17.013,176.73C407.016,341.345,400.185,347.575,392.525,347.575z M324.122,144.075
					c-7.101,0-13.435,5.778-14.119,12.881l-17.013,176.73c-0.329,3.413,0.701,6.626,2.9,9.046c2.183,2.404,5.252,3.728,8.642,3.728
					h87.993c7.101,0,13.435-5.778,14.119-12.881l17.013-176.73c0.329-3.414-0.701-6.627-2.899-9.047
					c-2.183-2.403-5.252-3.727-8.642-3.727H324.122z"/>
			</g>
			<polygon style="opacity:0.1;fill:#407BFF;" points="320.849,347.018 305.563,347.018 354.596,143.517 369.882,143.517 			"/>
			<polygon style="opacity:0.1;fill:#407BFF;" points="347.391,347.018 325.826,347.018 374.859,143.517 396.424,143.517 			"/>
			<path style="fill:#407BFF;" d="M347.231,340.259c-1.759,0-3.351-0.686-4.483-1.933c-1.139-1.254-1.672-2.919-1.502-4.688
				c0.346-3.591,3.549-6.513,7.142-6.513c1.759,0,3.351,0.686,4.483,1.933c1.139,1.254,1.673,2.919,1.502,4.688
				C354.027,337.337,350.824,340.259,347.231,340.259z M348.388,328.241c-3.034,0-5.74,2.47-6.032,5.505
				c-0.14,1.451,0.292,2.811,1.217,3.83c0.918,1.011,2.217,1.567,3.658,1.567c3.034,0,5.74-2.47,6.032-5.505
				c0.14-1.451-0.292-2.812-1.218-3.83C351.127,328.798,349.828,328.241,348.388,328.241z"/>
			<path style="fill:#407BFF;" d="M388.064,347.575v-1.115c7.101,0,13.434-5.778,14.118-12.881l17.014-176.73
				c0.329-3.414-0.701-6.627-2.899-9.047c-2.183-2.403-5.252-3.727-8.642-3.727v-1.115c3.708,0,7.07,1.453,9.468,4.092
				c2.412,2.656,3.543,6.173,3.184,9.904l-17.014,176.73C402.555,341.345,395.723,347.575,388.064,347.575z"/>
		</g>
		<g>
			<g>
				<path style="fill:#FFFFFF;" d="M326.2,192.216h-59.117c-7.362,0-12.805-6.023-12.096-13.385l6.15-63.885
					c0.709-7.362,7.312-13.385,14.673-13.385h59.117c7.362,0,12.805,6.023,12.096,13.385l-6.15,63.885
					C340.164,186.193,333.561,192.216,326.2,192.216z"/>
				<path style="fill:#407BFF;" d="M326.2,192.774h-59.117c-3.708,0-7.07-1.453-9.467-4.092c-2.413-2.656-3.543-6.174-3.184-9.905
					l6.15-63.884c0.737-7.659,7.568-13.89,15.229-13.89h59.117c3.708,0,7.07,1.453,9.467,4.093c2.413,2.655,3.543,6.173,3.184,9.904
					l-6.15,63.884C340.691,186.544,333.86,192.774,326.2,192.774z M275.81,102.119c-7.101,0-13.435,5.778-14.118,12.882
					l-6.15,63.884c-0.329,3.414,0.701,6.627,2.9,9.048c2.183,2.403,5.252,3.727,8.642,3.727H326.2
					c7.101,0,13.435-5.778,14.118-12.882l6.15-63.884c0.329-3.414-0.701-6.627-2.899-9.047c-2.183-2.404-5.252-3.728-8.642-3.728
					H275.81z"/>
			</g>
			<path style="fill:#263238;" d="M296.192,129.743c-1.941,0-3.698-0.757-4.946-2.132c-1.256-1.383-1.845-3.22-1.657-5.172
				c0.382-3.968,3.922-7.196,7.892-7.196c1.941,0,3.698,0.757,4.947,2.132c1.256,1.383,1.845,3.22,1.657,5.172
				C303.702,126.515,300.162,129.743,296.192,129.743z M297.48,116.359c-3.411,0-6.453,2.776-6.781,6.188
				c-0.158,1.635,0.33,3.167,1.372,4.314c1.035,1.14,2.498,1.767,4.121,1.767c3.411,0,6.453-2.776,6.782-6.188
				c0.158-1.635-0.33-3.167-1.372-4.314C300.567,116.987,299.104,116.359,297.48,116.359z"/>
			<path style="fill:#263238;" d="M295.763,134.205c-3.129,0-5.958-1.219-7.969-3.432c-2.022-2.227-2.97-5.187-2.667-8.334
				c0.619-6.429,6.353-11.658,12.783-11.658c3.129,0,5.959,1.219,7.969,3.432c2.022,2.227,2.97,5.187,2.667,8.334l0,0
				C307.927,128.976,302.193,134.205,295.763,134.205z M297.91,111.897c-5.871,0-11.107,4.777-11.673,10.65
				c-0.272,2.83,0.574,5.486,2.382,7.477c1.796,1.977,4.333,3.066,7.143,3.066c5.871,0,11.107-4.777,11.673-10.65
				c0.272-2.83-0.574-5.486-2.382-7.477C303.257,112.986,300.721,111.897,297.91,111.897z M307.991,122.493h0.01H307.991z"/>
			<g>
				<path style="fill:#407BFF;" d="M320.086,141.944c-2.421-0.315-4.775,1.595-5.013,4.066l0.292-3.029
					c0.198-2.063-1.166-3.804-3.187-4.067l0,0c-2.421-0.315-4.776,1.595-5.013,4.067l0.18-1.872
					c0.198-2.063-1.166-3.804-3.187-4.067c-2.421-0.315-4.775,1.595-5.013,4.067l-0.026,0.27l1.635-16.989
					c0.199-2.063-1.166-3.804-3.187-4.067c-2.421-0.315-4.776,1.595-5.013,4.067l-1.847,19.187l-3.206,16.975
					c-0.918-0.231-2.233-0.798-3.951-2.132c-3.657-2.838-10.333-3.538-11.535,1.358c-0.487,1.984,4.861,4.459,6.148,6.513
					c1.286,2.054,8.945,11.474,13.698,13.811l0,0c0.451,1.393,1.749,2.336,3.213,2.336h18.18c0.947,0,1.848-0.402,2.497-1.092
					c2.954-3.144,4.809-7.136,5.208-11.281l1.336-13.873l0,0l0.532-5.521l0.21-2.176l0,0l0.239-2.485
					C323.472,143.948,322.107,142.207,320.086,141.944z M306.87,146.037L306.87,146.037l0.25-2.602L306.87,146.037z"/>
			</g>
		</g>
		<g>
			<g>
				<path style="fill:#407BFF;" d="M367.887,249.255c-0.349-1.673-0.862-3.278-1.526-4.793l1.628-4.051l-7.226-7.996l-4.17,1.238
					c-1.437-0.81-2.978-1.478-4.602-1.988l-1.628-3.735h-11.311l-2.347,3.735c-1.722,0.51-3.391,1.178-4.984,1.988l-3.931-1.238
					l-8.766,7.996l0.848,4.051c-0.956,1.515-1.778,3.12-2.449,4.793l-3.927,1.988l-1.089,11.312l3.544,1.988
					c0.349,1.673,0.862,3.278,1.526,4.793l-1.628,4.051l7.226,7.996l4.17-1.237c1.437,0.81,2.978,1.477,4.602,1.988l1.628,3.736
					h11.311l2.347-3.736c1.722-0.51,3.391-1.178,4.984-1.988l3.931,1.237l8.766-7.996l-0.848-4.051
					c0.956-1.515,1.778-3.12,2.449-4.793l3.927-1.988l1.089-11.312L367.887,249.255z M340.639,270.183
					c-7.336,0-12.712-5.948-12.005-13.284c0.706-7.336,7.227-13.284,14.563-13.284c7.336,0,12.712,5.949,12.005,13.284
					C354.496,264.235,347.975,270.183,340.639,270.183z"/>
			</g>
			<path style="fill:#263238;" d="M398.854,209.805l-2.583-0.251c-0.604-0.837-1.293-1.596-2.051-2.272c0,0,0,0,0,0l0-2.605
				L388.014,202l-2.181,1.666c0,0,0,0,0,0c-1.049-0.109-2.124-0.109-3.211-0.001c0,0,0,0-0.001,0L380.763,202l-6.72,2.677
				l-0.501,2.606c-0.904,0.683-1.736,1.445-2.489,2.271c0,0,0,0,0,0l-2.63,0.251l-3.299,6.463l1.47,2.018c0,0,0,0.001,0,0.001
				c-0.206,1.059-0.312,2.135-0.307,3.212l-1.861,2.02l2.055,6.463l2.582,0.251c0,0,0,0.001,0.001,0.001
				c0.604,0.838,1.294,1.597,2.051,2.271c0,0,0.001,0.001,0.001,0.001l0,2.605l6.205,2.677l2.181-1.667
				c1.05,0.108,2.125,0.11,3.21,0l1.86,1.666l6.721-2.677l0.501-2.606l0,0c0.904-0.685,1.736-1.445,2.488-2.271l2.632-0.251
				l3.299-6.463l-1.471-2.019c0,0,0,0,0-0.001c0.206-1.057,0.313-2.133,0.308-3.21c0,0,0,0,0-0.001l1.861-2.021L398.854,209.805z
				 M386.39,231.609c-6.727,2.68-13.849-0.393-15.906-6.862c-2.058-6.472,1.728-13.889,8.456-16.569
				c6.727-2.68,13.852,0.391,15.909,6.863C396.907,221.511,393.118,228.929,386.39,231.609z"/>
		</g>
	</g>
</g>
<g id="Character_1_">
	<g>
		<g>
			<path style="fill:#FF8B7B;" d="M120.784,208.097l4.068,2.946l-7.702,6.04c0,0-1.038-3.193-1.133-6.384
				c-0.04-1.333,0.989-2.455,2.322-2.506L120.784,208.097z"/>
			<path style="fill:#FF8B7B;" d="M126.207,218.693l-2.312,1.638c-2.18,1.545-5.232,0.631-6.204-1.858l-0.543-1.391l7.702-6.04
				L126.207,218.693z"/>
		</g>
		<g>
			<path style="fill:#FF8B7B;" d="M181.228,155.217c1.828,4.586,3.702,9.284,5.605,13.863c0.936,2.303,1.925,4.571,2.909,6.807
				c0.983,2.228,2.04,4.415,3.098,6.389c0.53,0.976,1.076,1.882,1.532,2.479c0.676,0.868,1.432,1.76,2.212,2.678
				c1.575,1.821,3.265,3.651,4.956,5.494c3.397,3.67,6.861,7.4,10.222,11.202l-3.756,4.485c-4.409-2.758-8.603-5.722-12.69-8.934
				c-2.049-1.602-4.052-3.269-6.039-5.075c-1.002-0.896-1.983-1.86-2.981-2.905c-1.206-1.329-2.043-2.571-2.832-3.765
				c-3.03-4.773-5.24-9.422-7.431-14.168c-2.138-4.752-4.076-9.484-5.863-14.402L181.228,155.217z"/>
			<path style="fill:#FF8B7B;" d="M219.633,210.228l0.242-0.673c0.651-1.812-0.108-3.829-1.793-4.762l-1.993-1.104l-2.584,7.304
				l2.627,0.909C217.561,212.397,219.122,211.65,219.633,210.228z"/>
			<path style="fill:#FF8B7B;" d="M142.146,153.066c-3.079,4.629-6.234,9.282-9.397,13.881l-4.726,6.908l-4.562,6.783
				c-0.187,0.189-0.567,1.198-0.803,2.257c-0.253,1.087-0.434,2.319-0.568,3.584c-0.256,2.547-0.385,5.243-0.414,7.96
				c-0.062,5.435,0.076,11.048,0.277,16.569l-5.773,0.943c-1.515-5.614-2.654-11.209-3.363-17.023
				c-0.333-2.907-0.599-5.851-0.591-8.933c0.012-1.548,0.072-3.127,0.284-4.818c0.106-0.848,0.251-1.722,0.502-2.668
				c0.125-0.472,0.252-0.945,0.459-1.476c0.101-0.263,0.175-0.501,0.306-0.783l0.416-0.848l0.325-0.603l0.262-0.471l0.525-0.941
				l1.057-1.872c0.699-1.251,1.438-2.47,2.161-3.701c1.454-2.452,2.936-4.881,4.453-7.283c3.027-4.816,6.152-9.519,9.455-14.175
				L142.146,153.066z"/>
			<path style="fill:#263238;" d="M174.12,120.048c-0.196,0.598-0.042,1.198,0.343,1.341c0.385,0.143,0.856-0.226,1.052-0.823
				c0.196-0.598,0.042-1.198-0.343-1.341C174.787,119.082,174.316,119.45,174.12,120.048z"/>
			<path style="fill:#FF5652;" d="M174.024,121.226c0,0,0.21,3.945,1.14,6.156c-1.366,0.6-2.99-0.508-2.99-0.508L174.024,121.226z"
				/>
			<path style="fill:#407BFF;" d="M173.215,124.619c-0.054,0-0.108-0.001-0.161-0.004c-0.854-0.046-1.565-0.44-2.054-1.141
				c-0.727-1.039-0.857-2.649-0.35-4.309c0.863-2.819,3.336-5.024,5.446-4.906c0.855,0.046,1.564,0.44,2.054,1.141
				c0.727,1.039,0.857,2.649,0.35,4.309C177.658,122.458,175.315,124.619,173.215,124.619z M175.928,114.756
				c-1.891,0-4.02,2.006-4.8,4.557c-0.463,1.513-0.358,2.962,0.281,3.875c0.398,0.57,0.976,0.891,1.671,0.928
				c1.923,0.12,4.141-1.938,4.94-4.553c0.463-1.513,0.358-2.962-0.281-3.876c-0.398-0.569-0.976-0.89-1.671-0.927
				C176.022,114.757,175.975,114.756,175.928,114.756z"/>
			<path style="fill:#263238;" d="M176.141,116.509c-0.072-0.008-0.142-0.036-0.201-0.087c-0.043-0.037-1.074-0.902-2.605-0.457
				c-0.194,0.057-0.4-0.056-0.457-0.251c-0.057-0.196,0.056-0.4,0.252-0.457c1.93-0.56,3.241,0.561,3.295,0.61
				c0.153,0.134,0.168,0.365,0.035,0.519C176.378,116.479,176.258,116.522,176.141,116.509z"/>
			<path style="fill:#FF8B7B;" d="M153.076,121.798c-0.978,6.338-0.069,14.396-4.545,17.426c0,0,0.685,6.011,11.095,7.963
				c11.446,2.147,6.316-4.697,6.316-4.697c-6.025-2.674-5.173-7.313-3.437-11.493L153.076,121.798z"/>
			<path style="fill:#263238;" d="M145.481,140.671c-0.552-1.966-0.95-4.902,1.015-5.201c2.161-0.329,15.607,1.111,22.984,5.072
				c-1.958,2.627-1.153,5.579-1.153,5.579L145.481,140.671z"/>
			<path style="fill:#407BFF;" d="M100.353,404.867c-1.018,0-2.507-0.587-3.06-0.875c-0.064-0.034-0.103-0.102-0.099-0.174
				c0.004-0.072,0.05-0.136,0.117-0.162c0.1-0.039,2.468-0.95,3.523-0.43c0.25,0.122,0.414,0.313,0.489,0.566
				c0.14,0.475-0.021,0.731-0.182,0.862C100.958,404.806,100.68,404.867,100.353,404.867z M97.859,403.853
				c1.084,0.475,2.631,0.86,3.047,0.517c0.04-0.032,0.162-0.133,0.062-0.474c-0.045-0.151-0.142-0.263-0.297-0.339
				C100.043,403.247,98.672,403.586,97.859,403.853z"/>
			<path style="fill:#407BFF;" d="M97.378,404.013c-0.049,0-0.097-0.02-0.132-0.056c-0.046-0.048-0.063-0.117-0.045-0.181
				c0.027-0.092,0.67-2.245,1.702-2.754c0.27-0.135,0.547-0.148,0.819-0.044c0.424,0.163,0.473,0.465,0.464,0.63
				c-0.048,0.889-1.904,2.17-2.76,2.398C97.41,404.011,97.394,404.013,97.378,404.013z M99.362,401.278
				c-0.098,0-0.196,0.025-0.296,0.074c-0.661,0.326-1.172,1.557-1.392,2.172c0.889-0.395,2.115-1.409,2.143-1.936
				c0.003-0.052,0.009-0.175-0.228-0.267C99.513,401.293,99.438,401.278,99.362,401.278z"/>
			<path style="fill:#407BFF;" d="M168.826,408.308c-0.932,0-1.896-0.119-2.396-0.219c-0.075-0.015-0.133-0.074-0.146-0.149
				c-0.013-0.076,0.022-0.151,0.089-0.191c0.391-0.23,3.847-2.211,4.684-0.838c0.234,0.384,0.151,0.653,0.04,0.813
				C170.784,408.171,169.823,408.308,168.826,408.308z M167.019,407.814c1.462,0.203,3.437,0.182,3.774-0.301
				c0.029-0.041,0.105-0.151-0.053-0.41C170.269,406.329,168.167,407.213,167.019,407.814z"/>
			<path style="fill:#407BFF;" d="M166.465,408.093c-0.037,0-0.073-0.011-0.104-0.032c-0.053-0.036-0.084-0.099-0.08-0.163
				c0.005-0.089,0.133-2.184,1.092-3.002c0.295-0.253,0.642-0.355,1.019-0.322c0.518,0.053,0.668,0.317,0.704,0.53
				c0.149,0.901-1.622,2.547-2.554,2.973C166.518,408.087,166.491,408.093,166.465,408.093z M168.245,404.935
				c-0.234,0-0.442,0.079-0.631,0.241c-0.629,0.537-0.856,1.8-0.931,2.406c0.938-0.57,2.14-1.873,2.05-2.419
				c-0.008-0.046-0.031-0.188-0.377-0.223C168.318,404.936,168.281,404.935,168.245,404.935z"/>
			<polygon style="fill:#FF8B7B;" points="157.898,407.909 165.689,407.909 165.769,389.866 157.977,389.866 			"/>
			<polygon style="fill:#FF8B7B;" points="88.72,401.654 96.277,403.552 103.795,386.836 96.238,384.939 			"/>
			<path style="fill:#263238;" d="M97,402.803l-8.49-2.132c-0.309-0.078-0.622,0.072-0.753,0.359l-2.92,6.407
				c-0.303,0.665,0.105,1.468,0.821,1.635c2.975,0.693,4.451,0.879,8.185,1.817c2.297,0.577,6.978,2.006,10.15,2.803
				c3.102,0.779,4.253-2.266,3.015-2.879c-5.552-2.748-7.371-5.073-8.879-7.233C97.856,403.191,97.452,402.917,97,402.803z"/>
			<path style="fill:#263238;" d="M165.603,407.006h-8.508c-0.318,0-0.586,0.221-0.643,0.532l-1.272,6.925
				c-0.132,0.718,0.44,1.398,1.174,1.386c3.067-0.052,7.495-0.232,11.353-0.232c4.511,0,6.349,0.246,11.639,0.246
				c3.198,0,3.961-3.234,2.611-3.527c-6.147-1.333-9.062-1.476-14.454-4.724C166.917,407.26,166.275,407.006,165.603,407.006z"/>
			<g>
				<path style="fill:#407BFF;" d="M139.603,138.681c-7.422,0.311-18.568,18.477-18.568,18.477l12.944,12.655
					c0,0,6.599-6.671,11.932-14.519C151.498,147.072,147.192,138.363,139.603,138.681z"/>
				<path style="opacity:0.2;fill:#FFFFFF;" d="M139.603,138.681c-7.422,0.311-18.568,18.477-18.568,18.477l12.944,12.655
					c0,0,6.599-6.671,11.932-14.519C151.498,147.072,147.192,138.363,139.603,138.681z"/>
			</g>
			<path style="opacity:0.2;" d="M142.721,151.88l-9.52,17l0.608,0.6c0,0,3.566-3.615,7.588-8.645L142.721,151.88z"/>
			<g>
				<path style="fill:#407BFF;" d="M174.954,181.382c-1.659,8.537-4.17,19.072-7.918,32.03l-40.966-7.683
					c0.604-5.891,7.905-32.027,7.737-60.368c-0.024-3.988,3.317-7.182,7.298-6.94c2.028,0.123,4.27,0.316,6.46,0.618
					c5.27,0.729,12.873,1.982,17.408,3.265c5.984,1.694,11.462,4.351,11.462,4.351s2.792,4.451,0.517,22.444
					C176.502,172.651,175.857,176.717,174.954,181.382z"/>
				<path style="opacity:0.3;fill:#FFFFFF;" d="M174.954,181.382c-1.659,8.537-4.17,19.072-7.918,32.03l-40.966-7.683
					c0.604-5.891,7.905-32.027,7.737-60.368c-0.024-3.988,3.317-7.182,7.298-6.94c2.028,0.123,4.27,0.316,6.46,0.618
					c5.27,0.729,12.873,1.982,17.408,3.265c5.984,1.694,11.462,4.351,11.462,4.351s2.792,4.451,0.517,22.444
					C176.502,172.651,175.857,176.717,174.954,181.382z"/>
			</g>
			<path style="opacity:0.5;fill:#407BFF;" d="M174.954,181.382c-3.266-2.24-6.029-12.091-4.425-17.142l6.424,4.859
				C176.502,172.651,175.857,176.717,174.954,181.382z"/>
			<g>
				<path style="fill:#407BFF;" d="M166.819,151.558c-2.397,7.02,9.696,28.404,9.696,28.404l15.719-7.465
					c0,0-3.101-10.657-8.337-18.97C178.05,144.242,169.518,143.65,166.819,151.558z"/>
				<path style="opacity:0.3;fill:#FFFFFF;" d="M166.819,151.558c-2.397,7.02,9.696,28.404,9.696,28.404l15.719-7.465
					c0,0-3.101-10.657-8.337-18.97C178.05,144.242,169.518,143.65,166.819,151.558z"/>
			</g>
			<g>
				<polygon style="opacity:0.2;" points="165.767,389.871 165.728,399.171 157.933,399.171 157.973,389.871 				"/>
				<polygon style="opacity:0.2;" points="96.234,384.943 103.794,386.841 99.915,395.456 92.355,393.558 				"/>
			</g>
			<path style="fill:#FF8B7B;" d="M154.884,111.49c-1.961,7.505-3.484,11.783-1.064,16.907c3.64,7.706,13.674,7.659,17.801,0.973
				c3.715-6.018,6.298-17.279,0.172-22.828C165.758,101.075,156.845,103.986,154.884,111.49z"/>
			<path style="fill:#263238;" d="M167.666,119.002c1.84,0.131,5.783-2.557,6.003-5.057c1.942-1.111,5.181-2.555,5.7-4.889
				c0.519-2.333,1.352-10.778-3.592-9.056c-4.944,1.722-4.044-0.778-8.688-1.833c-4.645-1.056-5.745,1.333-9.834,1.389
				c-4.089,0.055-2.311,4.162-2.311,4.162c-4.222-1.329-8.167,2.56-5.778,5.56s-1.705,3.134-0.88,7.234
				c0.825,4.1,3.713,9.266,0.602,8.433c-3.111-0.833-1.222,6,7.833,5.722C165.777,130.389,169.332,121.337,167.666,119.002z"/>
			<polygon style="fill:#407BFF;" points="178.182,119.873 167.727,116.445 167.883,115.971 178.338,119.398 			"/>
			<path style="fill:#FF8B7B;" d="M164.703,117.958c-0.328,2.011,0.157,4.11,0.97,5.612c1.223,2.259,1.693,2.365,2.483,0.207
				c0.711-1.942,2.421-6.261,0.65-7.792C167.062,114.476,165.078,115.658,164.703,117.958z"/>
			<path style="fill:#263238;" d="M152.504,210.687c0,0-7.472,58.579-11.465,80.886c-4.372,24.428-37.23,103.005-37.23,103.005
				l-13.84-3.476c0,0,25.683-73.128,27.783-97.314c2.279-26.25,3.927-69.387,8.324-88.057
				C152.504,210.687,152.504,210.687,152.504,210.687z"/>
			<g>
				<path style="fill:#407BFF;" d="M107.103,389.984c0.059,0.015-2.559,5.007-2.559,5.007l-15.572-3.911l1.294-4.717
					L107.103,389.984z"/>
			</g>
			<path style="opacity:0.2;" d="M147.476,231.996c0.477-0.095,0.923-0.106,1.347-0.032c-2.057,18.252-4.964,42.635-7.265,56.581
				C139.649,268.278,137.867,233.894,147.476,231.996z"/>
			<path style="fill:#263238;" d="M167.033,213.412c0,0,3.918,54.565,3.988,78.325c0.073,24.714-2.46,105.633-2.46,105.633h-13.199
				c0,0-6.528-79.476-8.052-103.747c-1.662-26.46-7.201-85.261-7.201-85.261L167.033,213.412z"/>
			<path style="fill:#FF8B7B;" d="M207.731,205.711l1.017-1.546c2.445-0.92,5.875-0.943,7.677-0.384l-2.919,7.211l-4.567-1.65
				C207.457,208.808,206.865,207.028,207.731,205.711z"/>
			<g>
				<path style="fill:#407BFF;" d="M170.898,392.112c0.061,0-0.533,5.48-0.533,5.48H154.31l-0.623-4.89L170.898,392.112z"/>
			</g>
		</g>
	</g>
</g>
</svg>
